<?xml version="1.0" encoding="UTF-8"?><svg id="uuid-becb5232-a58c-4e4b-899e-cee6cfbf1ac6" xmlns="http://www.w3.org/2000/svg" viewBox="0 0 198.09 131.8">
<title>Adidas logo - Brandlogos.net</title><polygon points="56.18 85.78 64.23 85.78 56.18 72.37 49.39 61.07 20.51 78.42 24.92 85.78 56.18 85.78 56.18 85.78 56.18 85.78" style="fill:#0072b5;"/><polygon points="131.05 85.78 145.9 85.78 170.37 85.78 145.9 45.01 118.83 0 107.69 6.71 89.98 17.35 107.69 46.82 131.05 85.78 131.05 85.78 131.05 85.78" style="fill:#0072b5;"/><path d="M117.31,99.22c-2.77-1.79-6.02-2.83-9.54-2.83h-.09c-9.72.06-17.61,7.99-17.61,17.7s7.9,17.64,17.61,17.7h.09c3.52,0,6.77-1.04,9.54-2.83h0v1.85h8.14v-45.04h-8.14v13.44h0ZM117.31,115.94c-.86,4.47-4.83,7.9-9.54,7.9h-.09c-5.33-.06-9.66-4.41-9.66-9.75s4.32-9.69,9.66-9.72h.09c4.71,0,8.67,3.4,9.54,7.87h0v3.7h0Z" style="fill:#0072b5;"/><path d="M155.52,99.22c-2.74-1.79-6.02-2.83-9.54-2.83h-.09c-9.72.06-17.62,7.99-17.62,17.7s7.9,17.64,17.62,17.7h.09c3.52,0,6.8-1.04,9.54-2.83h0v1.85h8.14v-33.53h-8.14v1.94h0ZM155.52,115.94c-.86,4.47-4.83,7.9-9.54,7.9h-.09c-5.34-.06-9.66-4.41-9.66-9.75s4.32-9.69,9.66-9.72h.09c4.71,0,8.67,3.4,9.54,7.87h0v3.7h0Z" style="fill:#0072b5;"/><path d="M192.6,111.89c-.3-.15-.71-.3-1.19-.48-1.82-.63-4.77-1.4-8.88-2.29-3.61-.8-5.42-1.85-5.42-3.16,0-.92.33-1.67.95-2.2.84-.72,2.33-1.07,4.47-1.07s3.75.48,4.68,1.4c.57.57.98,1.58,1.25,3.01h8.64c0-4.23-1.73-7.27-5.13-9.12-.18-.12-.36-.21-.57-.3-2.35-1.1-5.48-1.67-9.39-1.67-4.74,0-8.32,1.25-10.7,3.79-1.91,2.03-2.83,4.5-2.83,7.42,0,3.64,1.79,6.26,5.42,7.96,1.37.66,4.71,1.58,10.01,2.71,3.55.78,5.34,1.88,5.34,3.28,0,.83-.36,1.55-1.13,2.2-.98.84-2.47,1.25-4.47,1.25-2.65,0-4.53-.45-5.63-1.31-1.1-.84-1.67-2.06-1.67-3.61h-9.06c0,4.11,1.73,7.18,5.22,9.21,2.77,1.58,6.41,2.38,10.91,2.38,3.01,0,5.69-.51,7.99-1.49.48-.21.89-.42,1.34-.66,3.55-1.97,5.33-5.1,5.33-9.39,0-3.52-1.82-6.14-5.48-7.87h0Z" style="fill:#0072b5;"/><path d="M27.24,99.22c-2.77-1.79-6.05-2.83-9.57-2.83h-.09c-9.69.06-17.58,7.99-17.58,17.7s7.9,17.64,17.58,17.7h.09c3.52,0,6.8-1.04,9.57-2.83h0v1.85h8.14v-33.53h-8.14v1.94h0ZM27.24,115.94c-.86,4.47-4.83,7.9-9.57,7.9h-.09c-5.3-.06-9.63-4.41-9.63-9.75s4.32-9.69,9.63-9.72h.09c4.74,0,8.7,3.4,9.57,7.87h0v3.7h0Z" style="fill:#0072b5;"/><polygon points="78.03 93.74 86.88 93.74 86.88 85.96 78.03 85.96 78.03 93.74 78.03 93.74 78.03 93.74" style="fill:#0072b5;"/><polygon points="78.03 130.82 86.88 130.82 86.88 96.39 78.03 96.39 78.03 130.82 78.03 130.82 78.03 130.82" style="fill:#0072b5;"/><path d="M65.84,99.22c-2.77-1.79-6.05-2.83-9.57-2.83h-.09c-9.72.06-17.62,7.99-17.62,17.7s7.9,17.64,17.62,17.7h.09c3.52,0,6.8-1.04,9.57-2.83h0v1.85h8.14v-45.04h-8.14v13.44h0ZM65.84,115.94c-.86,4.47-4.83,7.9-9.57,7.9h-.09c-5.34-.06-9.66-4.41-9.66-9.75s4.32-9.69,9.66-9.72h.09c4.74,0,8.7,3.4,9.57,7.87h0v3.7h0Z" style="fill:#0072b5;"/><polygon points="117.28 85.78 107.69 69.74 84.11 30.52 56.18 47.33 55.23 47.9 56.18 49.48 78 85.78 107.69 85.78 117.28 85.78 117.28 85.78 117.28 85.78" style="fill:#0072b5;"/></svg>