<?xml version="1.0" encoding="UTF-8"?><svg id="uuid-1d18ecdd-0784-4f09-bd96-7ea44985be5b" xmlns="http://www.w3.org/2000/svg" viewBox="0 0 146.55 72.37">
<title>Haagen-Dazs logo - Brandlogos.net</title><path d="M73.27,72.37c-1.61,0-3.09-.65-4.16-1.82-1.12-1.23-1.72-3.01-1.56-4.65,0-.01,0-.03,0-.04-1.22.35-2.51,1.09-3.86,1.85-1.38.78-2.8,1.59-4.36,2.13l-.06.02c-1.11.36-2.38.54-3.67.54-2.46,0-4.86-.68-6.9-1.93-1.36.26-2.54.38-3.66.38-2.96,0-5.51-.88-8.12-2.83-.71.09-1.4.14-2.07.14-4.31,0-7.17-1.88-9.22-3.85-.22,0-.43.01-.64.01-4.24,0-7.67-1.8-10.45-5.49-5.77-1.32-8-4.82-9.15-8.1C.29,45.44-.08,41.44.01,39.8c.08-1.35.49-2.52.97-3.61-.48-1.1-.89-2.26-.97-3.61-.1-1.64.27-5.65,5.39-8.95,1.14-3.28,3.37-6.77,9.15-8.1,2.78-3.69,6.21-5.49,10.45-5.49.21,0,.43,0,.64.01,2.05-1.97,4.9-3.85,9.22-3.85.66,0,1.36.05,2.07.14,2.6-1.95,5.16-2.83,8.12-2.83,1.12,0,2.31.12,3.66.38,2.04-1.25,4.44-1.92,6.9-1.92,1.29,0,2.56.19,3.67.54l.06.02c1.56.54,2.99,1.35,4.36,2.13,1.35.77,2.64,1.5,3.86,1.85,0,0,0,0,0,0-.16-1.67.44-3.45,1.56-4.68,1.07-1.17,2.54-1.82,4.16-1.82s3.09.65,4.16,1.82c1.12,1.23,1.72,3.01,1.56,4.65,0,.01,0,.03,0,.04,1.22-.35,2.51-1.09,3.86-1.85,1.38-.78,2.8-1.59,4.36-2.13l.06-.02c1.11-.36,2.38-.54,3.67-.54,2.46,0,4.86.68,6.9,1.92,1.35-.26,2.54-.38,3.66-.38,2.96,0,5.51.88,8.12,2.83.71-.09,1.4-.14,2.07-.14,4.31,0,7.17,1.88,9.22,3.85.22,0,.43-.01.64-.01,4.24,0,7.67,1.8,10.45,5.49,5.77,1.32,8,4.82,9.15,8.1,5.12,3.3,5.49,7.31,5.39,8.95-.08,1.35-.49,2.52-.97,3.61.48,1.1.89,2.26.97,3.61.1,1.64-.27,5.65-5.39,8.95-1.14,3.28-3.37,6.77-9.15,8.1-2.78,3.69-6.21,5.49-10.45,5.49-.21,0-.43,0-.64-.01-2.05,1.97-4.9,3.85-9.22,3.85-.66,0-1.36-.05-2.07-.14-2.6,1.95-5.15,2.83-8.12,2.83-1.12,0-2.31-.12-3.66-.38-2.04,1.25-4.45,1.93-6.9,1.93-1.29,0-2.56-.19-3.67-.54l-.06-.02c-1.56-.54-2.99-1.35-4.36-2.13-1.35-.77-2.64-1.5-3.86-1.85,0,0,0,0,0,0,.16,1.67-.44,3.45-1.56,4.68-1.07,1.17-2.54,1.82-4.16,1.82" style="fill:#fff;"/><path d="M142.24,36.18c.63-1.36,1.2-2.51,1.28-3.79.12-2.1-1.13-4.67-4.91-6.77-1.11-3.87-3.02-6.51-8.38-7.37-2.56-3.88-5.71-5.72-10.49-5.07-2.51-2.75-5.45-4.76-10.96-3.65-3.63-3.13-6.62-3.59-11.58-2.42-3.09-2.44-6.86-2.42-9.01-1.73-4.34,1.49-8.4,6.1-13.62,3.66.66-.68,1.31-1.97,1.41-2.87.12-1.25-.72-3.15-2.71-3.15s-2.82,1.9-2.71,3.15c.1.9.75,2.19,1.41,2.87-5.22,2.44-9.28-2.17-13.62-3.66-2.15-.69-5.93-.7-9.01,1.73-4.96-1.18-7.95-.71-11.58,2.42-5.5-1.12-8.45.9-10.96,3.65-4.78-.65-7.93,1.19-10.49,5.07-5.36.85-7.27,3.5-8.38,7.37-3.78,2.1-5.03,4.67-4.91,6.77.07,1.28.65,2.43,1.28,3.79-.63,1.36-1.2,2.51-1.28,3.79-.12,2.1,1.13,4.67,4.91,6.77,1.11,3.87,3.02,6.51,8.38,7.37,2.56,3.88,5.71,5.72,10.49,5.07,2.51,2.75,5.45,4.76,10.96,3.65,3.63,3.13,6.62,3.59,11.58,2.42,3.09,2.44,6.86,2.42,9.01,1.73,4.34-1.49,8.4-6.1,13.62-3.66-.67.68-1.31,1.97-1.41,2.87-.12,1.25.72,3.15,2.71,3.15s2.82-1.9,2.71-3.15c-.1-.9-.75-2.19-1.41-2.87,5.22-2.44,9.28,2.17,13.62,3.66,2.15.69,5.93.7,9.01-1.73,4.96,1.18,7.95.71,11.58-2.42,5.5,1.12,8.45-.9,10.96-3.65,4.78.65,7.93-1.19,10.49-5.07,5.36-.85,7.27-3.5,8.38-7.37,3.78-2.1,5.03-4.67,4.91-6.77-.07-1.28-.65-2.43-1.28-3.79M73.27,5.19c1.43,0,1.58,2.22,0,3.47-1.58-1.25-1.43-3.47,0-3.47M73.27,67.18c-1.43,0-1.58-2.22,0-3.47,1.58,1.25,1.43,3.47,0,3.47M137.72,45.27c-1.25,4.11-2.55,6.29-8.13,7.16-2.24,3.25-4.31,5.71-10.28,4.91-2.93,3.19-5.41,4.9-10.88,3.6-3.82,3.79-6.9,3.48-11.53,2.4-2.31,2.32-6.48,2.88-9.03,1.62-4.96-2.35-8.97-6.03-14.61-2.92-5.64-3.11-9.65.57-14.61,2.92-2.55,1.27-6.72.7-9.03-1.62-4.62,1.08-7.71,1.39-11.53-2.4-5.47,1.29-7.95-.41-10.88-3.6-5.97.8-8.04-1.67-10.28-4.91-5.58-.87-6.88-3.05-8.13-7.16-4.03-1.91-5.62-5.22-3.25-9.09-2.37-3.87-.78-7.18,3.25-9.09,1.25-4.11,2.55-6.29,8.13-7.16,2.24-3.25,4.31-5.71,10.28-4.91,2.93-3.19,5.41-4.9,10.88-3.6,3.82-3.79,6.9-3.48,11.53-2.4,2.31-2.32,6.48-2.88,9.03-1.62,4.96,2.35,8.97,6.03,14.61,2.92,5.64,3.11,9.65-.57,14.61-2.92,2.55-1.27,6.72-.7,9.03,1.62,4.62-1.08,7.71-1.39,11.53,2.4,5.47-1.29,7.95.41,10.88,3.6,5.97-.8,8.04,1.67,10.28,4.91,5.58.87,6.88,3.05,8.13,7.16,4.03,1.91,5.62,5.22,3.25,9.09,2.37,3.88.78,7.18-3.25,9.09" style="fill:#6d1c2f;"/><polygon points="30.29 41.93 26.48 41.93 26.5 35.77 22.7 35.77 22.69 41.92 18.91 41.91 18.91 26.3 22.7 26.3 22.7 32.18 26.44 32.18 26.44 26.31 30.28 26.31 30.29 41.93" style="fill:#6d1c2f;"/><path d="M39.27,30.15c-1.1,0-1.99-.89-1.99-1.99s.89-1.99,1.99-1.99,1.99.89,1.99,1.99-.89,1.99-1.99,1.99" style="fill:#6d1c2f;"/><path d="M34.53,30.15c-1.1,0-1.99-.89-1.99-1.99s.89-1.99,1.99-1.99,1.99.89,1.99,1.99-.89,1.99-1.99,1.99" style="fill:#6d1c2f;"/><path d="M35.35,42.15c-.63,0-1.27-.13-1.83-.37-1.83-.86-2.57-2.8-2.63-4.7-.12-2.28.72-4.47,2.78-5.52.52-.23,1.18-.37,1.83-.37.85,0,1.7.24,2.25.84l.1-.65h3.44v10.52h-3.29l-.08-.61c-.71.6-1.64.87-2.57.87M36.21,34.6c-.18,0-1.56.07-1.56,2.13,0,0-.21,2.11,1.63,2.11,0,0,0,0,.02,0,.18,0,1.51-.07,1.51-2.13,0,0,.23-2.05-1.58-2.11h-.02" style="fill:#6d1c2f;"/><path d="M57.78,46.88c-1.2,0-2.41-.23-3.42-.58v-3.05c.77.3,1.76.59,2.71.59.76,0,1.5-.18,2.09-.69.44-.46.53-1.18.4-1.81-.63.47-1.47.71-2.31.71-.51,0-1.02-.09-1.48-.27-2-.8-2.93-2.93-2.93-4.99.02-2.09.65-4.13,2.53-5.23.59-.31,1.35-.5,2.1-.5.84,0,1.67.24,2.24.81l.11-.65h3.45v10.7c-.05,1.52-.56,2.87-1.74,3.86-1,.79-2.36,1.09-3.74,1.09M58.15,34.47c-.19,0-1.56.07-1.56,2.14,0,0-.21,2.11,1.63,2.11h.02c.18,0,1.51-.07,1.51-2.13,0,0,.23-2.06-1.58-2.11h-.02" style="fill:#6d1c2f;"/><path d="M106.48,42.15c-.64,0-1.27-.13-1.84-.37-1.83-.86-2.57-2.8-2.63-4.7-.13-2.28.72-4.47,2.78-5.52.52-.23,1.18-.37,1.83-.37.85,0,1.7.24,2.26.84l.1-.65h3.43v10.52h-3.29l-.08-.61c-.71.6-1.64.87-2.57.87M107.33,34.6c-.18,0-1.56.07-1.56,2.13,0,0-.21,2.11,1.63,2.11,0,0,0,0,.02,0,.18,0,1.51-.07,1.51-2.13,0,0,.24-2.05-1.58-2.11h-.02" style="fill:#6d1c2f;"/><polygon points="120.84 41.89 112.72 41.89 116.2 34.39 112.99 34.39 112.99 31.37 121.48 31.37 117.94 39.05 120.84 39.05 120.84 41.89" style="fill:#6d1c2f;"/><path d="M124.46,42.22c-.28,0-.58-.02-.89-.06,0,0-2.13-.34-2.29-.55v-2.92s1.42.74,2.63.76h.02c.19,0,1.46-.02,1.5-.61,0,0,.13-.53-1.34-.79,0,0-2-.2-2.94-1.88,0,0-.85-2.15.7-3.75,0,0,1.14-1.19,2.95-1.19.09,0,.18,0,.28,0h.03c.26,0,1.96.02,3.32.58v2.71s-1-.5-2.28-.5c-.16,0-.32,0-.49.03h-.02c-.14,0-1.12.02-1.12.66,0,0-.11.37,1.05.47,0,0,1.82.03,2.9,1.11,0,0,.84.87.74,2.16,0,0,.08,1.95-1.71,2.98,0,0-1.18.8-3.06.8" style="fill:#6d1c2f;"/><rect x="84.89" y="33.99" width="3.58" height="3.43" style="fill:#6d1c2f;"/><path d="M83.65,41.95h-3.37v-6.43s-.11-1.08-1.16-1.13c-.06,0-.12,0-.18,0-.86,0-1.1.37-1.16,1.14v6.41h-3.47v-10.52h3.13l.13.66s1.03-.87,2.1-.92c0,0,.23-.04.56-.04.48,0,1.17.07,1.73.43,0,0,1.48.63,1.68,2.74v7.66Z" style="fill:#6d1c2f;"/><path d="M46.34,42.15c-.64,0-1.27-.13-1.84-.37-1.83-.86-2.57-2.8-2.63-4.7-.12-2.28.72-4.47,2.78-5.52.52-.23,1.18-.37,1.83-.37.85,0,1.7.24,2.25.84l.11-.65h3.43v10.52h-3.29l-.08-.61c-.71.6-1.64.87-2.57.87M47.19,34.6c-.18,0-1.56.07-1.56,2.13,0,0-.21,2.11,1.63,2.11,0,0,0,0,.02,0,.18,0,1.51-.07,1.51-2.13,0,0,.24-2.05-1.58-2.11h-.02" style="fill:#6d1c2f;"/><path d="M94.4,41.92h-4.58v-15.62h4.9s.09,0,.13,0c2.25,0,3.84,1,3.84,1,3.19,1.77,3.14,6.64,3.14,6.64-.08,5.53-3.16,6.9-3.16,6.9-1.34.95-4.27,1.08-4.27,1.08M93.82,29.81v8.66h1.05s1.1-.02,1.79-.81c0,0,1.13-.97,1.13-3.53,0-.08-.01-2.87-1.34-3.71,0,0-.62-.61-1.61-.61h-1.03Z" style="fill:#6d1c2f;"/><path d="M69.55,41.99c-1.49,0-2.97-.43-4.03-1.37-1.64-1.48-1.91-3.61-1.64-5.75.39-1.78,1.91-3.48,3.7-3.86.42-.09.84-.13,1.26-.13,1.78,0,3.4.81,4.26,2.45.52.93.64,1.96.72,3.03l-5.62,2.02c.47.56,1.17.76,1.92.76.66,0,1.36-.15,1.95-.34l.93-.43v2.8c-1,.53-2.23.82-3.44.82M68.72,33.8c-.81,0-1.47.68-1.47,1.53,0,.16.03.32.07.47l2.79-.96c-.2-.6-.74-1.03-1.39-1.03" style="fill:#6d1c2f;"/><path d="M127.95,46.08c-.34.34-.75.51-1.24.51s-.9-.17-1.23-.51c-.34-.34-.51-.75-.51-1.24s.17-.89.51-1.23c.34-.34.75-.51,1.23-.51s.9.17,1.24.51c.34.34.51.75.51,1.23s-.17.9-.51,1.24M125.65,43.78c-.29.29-.44.65-.44,1.06s.15.78.44,1.07c.29.3.65.44,1.06.44s.77-.15,1.06-.44c.29-.29.44-.65.44-1.07s-.15-.77-.44-1.06c-.29-.29-.65-.44-1.06-.44s-.77.15-1.06.44M126.68,43.88c.24,0,.41.02.52.07.2.08.3.24.3.49,0,.17-.06.3-.19.38-.07.04-.16.07-.28.09.15.02.26.09.33.19.07.1.1.2.1.3v.14s0,.09,0,.14c0,.05,0,.08.02.1v.02s-.3,0-.3,0c0,0,0-.01,0-.02,0,0,0-.01,0-.02v-.06s0-.15,0-.15c0-.22-.06-.37-.18-.44-.07-.04-.2-.06-.38-.06h-.27v.75h-.34v-1.92h.67ZM127.04,44.18c-.09-.05-.22-.07-.41-.07h-.29v.69h.31c.14,0,.25-.01.32-.04.13-.05.2-.15.2-.3,0-.14-.04-.23-.13-.28" style="fill:#6d1c2f;"/></svg>