<?xml version="1.0" encoding="utf-8"?>
<!-- Generator: Adobe Illustrator 24.0.0, SVG Export Plug-In . SVG Version: 6.00 Build 0)  -->
<svg version="1.1" xmlns="http://www.w3.org/2000/svg" xmlns:xlink="http://www.w3.org/1999/xlink" x="0px" y="0px"
	 viewBox="0 0 256 256" enable-background="new 0 0 256 256" xml:space="preserve">
<g id="Layer_1">
	<g>
		<g>
			<g>
				<circle fill="#F9D0B4" cx="202.132" cy="36.837" r="20.991"/>
			</g>
		</g>
		<g>
			<g>
				<path fill="#F5C84C" d="M180.015,59.258l-34.087-14.101c-1.965-0.813-4.209,0.194-4.909,2.202l-7.57,21.725
					c-0.639,1.834,0.249,3.85,2.033,4.617l11.575,4.976c1.042,0.448,1.43,1.727,0.813,2.679l-24.31,31.585
					c-1.575,2.429-0.801,5.575,1.694,7.044c5.497,3.236,17.505,8.552,26.362,8.801c2.749,0.077,5.346-1.259,6.837-3.57
					l28.549-45.336C191.687,73.004,187.849,62.424,180.015,59.258z"/>
			</g>
		</g>
		<g>
			<g>
				<path fill="#F5C84C" d="M124.363,144.629c-7.354-5.202-9.271-15.531-4.275-23.025l1.242-1.863l-28.171,24.587
					c-1.486,1.297-1.683,3.536-0.445,5.072l16.473,20.449c1.309,1.624,3.706,1.834,5.276,0.463l20.686-18.055L124.363,144.629z"/>
			</g>
		</g>
		<g>
			<g>
				<path fill="#F5C84C" d="M176.896,140.649l-19.706-13.938c-1.494,1.376-3.489,2.134-5.574,2.075
					c-8.858-0.249-20.866-5.565-26.362-8.801c-1.117-0.658-1.866-1.658-2.237-2.773l-2.929,4.393
					c-4.996,7.494-3.078,17.822,4.275,23.025l29.827,21.097c1.476,1.045,3.498,0.86,4.761-0.444l18.464-19.079
					C178.979,144.585,178.735,141.949,176.896,140.649z"/>
			</g>
		</g>
		<g>
			<g>
				<path fill="#FCA265" d="M202.135,97.076l-13.102-24.294c0.045,2.501-0.585,4.976-2.03,7.098L169.88,107.07l4.808,9.207
					c1.149,2.201,4.012,2.854,6.002,1.344l20.334-15.426C202.606,100.996,203.077,98.823,202.135,97.076z"/>
			</g>
		</g>
		<g>
			<g>
				<path fill="#FC657E" d="M202.931,240.032c-4.188-1.071-9.201-3.375-12.789-6.468l-7.895-6.805
					c-1.921-1.656-4.574-2.173-6.977-1.36l-8.767,2.966c-3.17,1.072-6.642-0.56-7.792-3.702c-0.372-1.017-0.608-2.005-0.817-2.753
					c-0.501-1.795-2.808-2.331-4.05-0.887l-7.955,15.29c-0.872,2.519,0.582,5.017,3.12,5.581l38.228,8.496
					c10.762,2.392,15.617-2.295,17.269-4.549C206.067,243.708,205.277,240.632,202.931,240.032z"/>
			</g>
		</g>
		<g>
			<g>
				<path fill="#FC657E" d="M43.836,130.504l-12.149-12.226c-2.135-1.597-4.956-0.97-6.265,1.276L5.709,153.392
					c-5.55,9.526-2.561,15.576-0.915,17.835c1.556,2.135,4.727,2.318,6.012,0.265c2.293-3.664,6.012-7.74,10.049-10.218l8.883-5.453
					c2.161-1.327,3.461-3.698,3.417-6.233l-0.161-9.254c-0.058-3.346,2.552-6.157,5.896-6.298c1.082-0.046,2.095,0.03,2.871,0.058
					C43.622,134.161,44.834,132.126,43.836,130.504z"/>
			</g>
		</g>
		<g>
			<g>
				<path fill="#F9D0B4" d="M186.007,151.592l-8.248-5.834c-0.107,0.152-0.21,0.306-0.344,0.444l-18.068,18.671l4.811,3.403
					l-8.513,51.929c0.986,0.008,1.947,0.621,2.25,1.704c0.203,0.727,0.432,1.681,0.786,2.668c1.133,3.154,4.65,4.861,7.824,3.787
					l8.765-2.965l15.8-59.806C192.566,159.925,190.197,154.556,186.007,151.592z"/>
			</g>
		</g>
		<g>
			<g>
				<path fill="#F9D0B4" d="M109.187,169.85l-16.382-20.337l-1.843,1.609l-46.795-19.577c0.117,1.335-0.93,2.602-2.406,2.548
					c-0.776-0.028-1.789-0.104-2.871-0.058c-3.343,0.14-5.954,2.952-5.896,6.298l0.161,9.254L88.37,178.48
					c4.66,1.949,9.962,1.035,13.69-2.219l7.228-6.309C109.256,169.915,109.218,169.888,109.187,169.85z"/>
			</g>
		</g>
		<g>
			<g>
				<path fill="#F9D0B4" d="M243.042,109.519l-42.384-4.213l-1.059-2.029l-18.755,14.228l2.142,4.102
					c1.811,3.468,5.247,5.79,9.14,6.176l48.622,4.833c0.39,0.039,0.778,0.058,1.162,0.058c5.893,0,10.94-4.471,11.534-10.459
					C254.076,115.838,249.42,110.153,243.042,109.519z"/>
			</g>
		</g>
		<g>
			<g>
				<path fill="#F9D0B4" d="M133.858,44.98c-3.667-1.52-7.857-1.077-11.126,1.18L82.21,74.14c-5.315,3.67-6.649,10.955-2.979,16.271
					c2.27,3.287,5.921,5.051,9.635,5.051c2.291,0,4.607-0.672,6.635-2.072l35.281-24.361l2.483,1.03
					c0.021-0.326,0.071-0.653,0.183-0.975l7.39-21.209L133.858,44.98z"/>
			</g>
		</g>
		<g>
			<g>
				<path fill="#FCA265" d="M145.927,45.157c-1.965-0.813-4.209,0.194-4.909,2.202l-7.57,21.725
					c-0.639,1.834,0.249,3.85,2.033,4.617l11.575,4.976c0.727,0.313,1.126,1.03,1.097,1.758l6.704-2.743
					c8.181-3.347,14.978-9.381,19.271-17.108l1.699-3.059L145.927,45.157z"/>
			</g>
		</g>
		<g>
			<g>
				<path fill="#FCA265" d="M135.613,152.586l18.578,13.14c1.476,1.045,3.498,0.86,4.761-0.444l15.635-16.156
					C158.389,156.257,140.789,153.61,135.613,152.586z"/>
			</g>
		</g>
		<g>
			<g>
				<path fill="#FCA265" d="M107.092,132.168l-13.933,12.161c-1.486,1.297-1.683,3.536-0.445,5.072l11.911,14.786
					C102.22,150.051,105.619,136.901,107.092,132.168z"/>
			</g>
		</g>
		<g>
			<g>
				<path fill="#DAE6F1" d="M44.166,131.545c0.117,1.335-0.93,2.602-2.406,2.548c-0.776-0.028-1.789-0.104-2.871-0.058
					c-3.343,0.14-5.954,2.952-5.896,6.298l0.161,9.254l8.833,4.622l9.503-19.599L44.166,131.545z"/>
			</g>
		</g>
		<g>
			<g>
				<path fill="#DAE6F1" d="M157.035,211.718l-1.391,8.487c0.986,0.008,1.947,0.621,2.25,1.704c0.203,0.727,0.432,1.681,0.786,2.668
					c1.133,3.154,4.65,4.861,7.824,3.787l8.765-2.965l2.487-9.415L157.035,211.718z"/>
			</g>
		</g>
		<g>
			<g>
				<path fill="#F5C84C" d="M140.8,205.299c-4.5-0.8-8-4.3-8.9-8.7c0-0.2-0.4-0.2-0.4,0c-0.9,4.4-4.4,7.9-8.9,8.7
					c-0.2,0-0.2,0.3,0,0.4c4.5,0.8,8,4.3,8.9,8.7c0,0.2,0.4,0.2,0.4,0c0.9-4.4,4.4-7.9,8.9-8.7
					C141,205.599,141,205.299,140.8,205.299z"/>
			</g>
		</g>
		<g>
			<g>
				<path fill="#FC657E" d="M218.236,161.805c-3.232-0.575-5.746-3.088-6.392-6.249c0-0.144-0.287-0.144-0.287,0
					c-0.646,3.16-3.16,5.674-6.392,6.249c-0.144,0-0.144,0.215,0,0.287c3.232,0.575,5.746,3.088,6.392,6.249
					c0,0.144,0.287,0.144,0.287,0c0.646-3.16,3.16-5.674,6.392-6.249C218.38,162.021,218.38,161.805,218.236,161.805z"/>
			</g>
		</g>
		<g>
			<g>
				<path fill="#70D6F9" d="M159.2,16.349h-2.3v-2.3c0-1.7-1.4-3.2-3.2-3.2s-3.2,1.4-3.2,3.2v2.3h-2.3c-1.7,0-3.2,1.4-3.2,3.2
					c0,1.8,1.4,3.2,3.2,3.2h2.3v2.3c0,1.7,1.4,3.2,3.2,3.2s3.2-1.4,3.2-3.2v-2.3h2.3c1.7,0,3.2-1.4,3.2-3.2
					C162.4,17.749,161,16.349,159.2,16.349z"/>
			</g>
		</g>
		<g>
			<g>
				<path fill="#70D6F9" d="M125.8,226.949c-1.878,0-3.4,1.522-3.4,3.4s1.522,3.4,3.4,3.4c1.878,0,3.4-1.522,3.4-3.4
					S127.678,226.949,125.8,226.949z"/>
			</g>
		</g>
		<g>
			<g>
				<path fill="#87D147" d="M176.8,2.449c-1.878,0-3.4,1.522-3.4,3.4s1.522,3.4,3.4,3.4c1.878,0,3.4-1.522,3.4-3.4
					S178.678,2.449,176.8,2.449z"/>
			</g>
		</g>
		<g>
			<g>
				<g>
					<g>
						<path d="M202.132,13.346c-12.953,0-23.491,10.538-23.491,23.491s10.538,23.491,23.491,23.491s23.491-10.538,23.491-23.491
							S215.085,13.346,202.132,13.346z M202.132,55.329c-10.196,0-18.491-8.295-18.491-18.491s8.295-18.491,18.491-18.491
							s18.491,8.295,18.491,18.491S212.328,55.329,202.132,55.329z"/>
					</g>
				</g>
			</g>
		</g>
		<g>
			<g>
				<g>
					<g>
						<path d="M190.787,68.041c-1.541-5.082-5.213-9.229-9.826-11.096l-34.077-14.097c-1.57-0.649-3.358-0.624-4.908,0.072
							c-1.55,0.695-2.759,2.014-3.318,3.617l-7.57,21.726c-1.065,3.059,0.431,6.457,3.407,7.736l10.778,4.633l-23.693,30.785
							c-0.041,0.053-0.08,0.108-0.116,0.165c-1.129,1.741-1.492,3.796-1.022,5.788c0.474,2.01,1.733,3.704,3.545,4.771
							c6.002,3.534,18.295,8.886,27.56,9.146c0.097,0.003,0.193,0.004,0.29,0.004c3.511,0,6.831-1.79,8.733-4.741l28.5-45.26
							C191.59,77.586,192.216,72.757,190.787,68.041z M184.886,78.548l-28.535,45.313c-1.013,1.573-2.748,2.489-4.665,2.426
							c-8.262-0.232-19.82-5.311-25.165-8.457c-0.625-0.369-1.057-0.94-1.215-1.61c-0.147-0.625-0.039-1.278,0.306-1.847
							l24.238-31.492c0.042-0.054,0.08-0.108,0.117-0.165c0.696-1.073,0.882-2.391,0.51-3.614s-1.258-2.215-2.434-2.721
							l-11.575-4.976c-0.576-0.248-0.866-0.906-0.66-1.498l7.57-21.725c0.148-0.425,0.466-0.622,0.642-0.701
							c0.176-0.079,0.532-0.187,0.95-0.014l34.087,14.101c0.006,0.003,0.013,0.005,0.019,0.008c3.228,1.305,5.816,4.263,6.923,7.915
							C186.991,72.753,186.602,76.027,184.886,78.548z"/>
					</g>
				</g>
			</g>
		</g>
		<g>
			<g>
				<path d="M136.357,151.202c-0.909-1.041-2.488-1.147-3.527-0.239l-20.012,17.466c-0.328,0.286-0.688,0.3-0.874,0.285
					c-0.186-0.017-0.539-0.094-0.812-0.433l-16.473-20.449c-0.397-0.493-0.334-1.205,0.143-1.621l27.778-24.244
					c1.04-0.908,1.147-2.487,0.239-3.527c-0.907-1.04-2.486-1.147-3.527-0.239l-27.777,24.243c-2.507,2.188-2.836,5.932-0.749,8.524
					l16.473,20.45c1.064,1.32,2.58,2.128,4.269,2.276c0.185,0.016,0.37,0.024,0.553,0.024c1.49,0,2.909-0.531,4.045-1.523
					l20.012-17.466C137.158,153.822,137.266,152.243,136.357,151.202z"/>
			</g>
		</g>
		<g>
			<g>
				<path d="M180.921,143.074c-0.168-1.797-1.108-3.425-2.581-4.466l-19.189-13.572c-1.126-0.796-2.688-0.53-3.485,0.597
					s-0.53,2.688,0.597,3.485l19.189,13.572c0.383,0.271,0.472,0.648,0.49,0.849c0.019,0.201,0.001,0.588-0.324,0.925
					l-18.463,19.079c-0.405,0.419-1.045,0.479-1.521,0.142l-29.827-21.097c-6.259-4.428-7.891-13.219-3.639-19.597l2.654-3.981
					c0.766-1.148,0.456-2.701-0.693-3.467c-1.149-0.766-2.701-0.455-3.467,0.693l-2.654,3.981
					c-5.74,8.609-3.536,20.476,4.912,26.452l29.826,21.096c1.085,0.769,2.332,1.145,3.571,1.145c1.618,0,3.222-0.642,4.431-1.891
					l18.463-19.08C180.465,146.645,181.088,144.871,180.921,143.074z"/>
			</g>
		</g>
		<g>
			<g>
				<path d="M204.335,95.89l-12.878-23.877c-0.655-1.215-2.171-1.67-3.387-1.014c-1.215,0.655-1.669,2.172-1.014,3.387
					l12.878,23.877c0.359,0.667,0.183,1.482-0.421,1.94l-20.335,15.426c-0.489,0.372-0.994,0.331-1.253,0.273
					c-0.259-0.058-0.736-0.237-1.021-0.783l-4.372-8.371c-0.639-1.225-2.149-1.7-3.373-1.059c-1.224,0.639-1.698,2.149-1.059,3.373
					l4.371,8.37c0.89,1.707,2.48,2.927,4.361,3.348c0.475,0.106,0.954,0.159,1.43,0.159c1.41,0,2.793-0.458,3.938-1.328
					l20.334-15.426C205.116,102.229,205.873,98.739,204.335,95.89z"/>
			</g>
		</g>
		<g>
			<g>
				<g>
					<g>
						<path d="M207.444,241.218c-0.655-1.828-2.075-3.143-3.894-3.608c-4.285-1.096-8.798-3.372-11.777-5.939l-7.896-6.806
							c-2.578-2.222-6.183-2.925-9.41-1.834l-8.767,2.966c-1.882,0.639-3.966-0.346-4.643-2.193
							c-0.25-0.682-0.437-1.381-0.603-1.998l-0.155-0.568c-0.481-1.725-1.867-3.038-3.615-3.427
							c-1.75-0.391-3.564,0.217-4.738,1.582c-0.125,0.146-0.233,0.306-0.322,0.476l-7.955,15.29
							c-0.056,0.108-0.104,0.22-0.145,0.335c-0.653,1.885-0.494,3.853,0.449,5.54c0.933,1.67,2.57,2.873,4.491,3.3l38.228,8.496
							c2.279,0.506,4.33,0.723,6.172,0.723c8.068,0,12.126-4.147,13.656-6.235C207.829,245.533,208.173,243.253,207.444,241.218z
							 M202.489,244.362c-1.299,1.772-5.333,5.669-14.71,3.586l-38.228-8.496c-0.539-0.12-0.969-0.424-1.211-0.857
							c-0.156-0.279-0.297-0.728-0.134-1.322l7.404-14.231l0.016,0.058c0.183,0.682,0.411,1.53,0.737,2.421
							c1.6,4.373,6.507,6.711,10.94,5.211l8.767-2.966c1.556-0.527,3.297-0.188,4.543,0.886l7.896,6.806
							c3.581,3.086,8.741,5.701,13.802,6.996c0,0,0,0,0,0c0.072,0.019,0.291,0.075,0.425,0.451
							C202.861,243.252,202.871,243.841,202.489,244.362z"/>
					</g>
				</g>
			</g>
		</g>
		<g>
			<g>
				<g>
					<g>
						<path d="M45.965,129.194c-0.101-0.164-0.22-0.315-0.355-0.452L33.46,116.517c-0.086-0.086-0.178-0.167-0.276-0.24
							c-1.598-1.195-3.521-1.642-5.415-1.256c-1.875,0.381-3.518,1.575-4.508,3.276L3.549,152.133
							c-6.321,10.848-2.648,17.996-0.776,20.566c1.257,1.724,3.226,2.735,5.304,2.735c0.075,0,0.151-0.001,0.227-0.004
							c1.94-0.069,3.625-1.021,4.621-2.613c2.347-3.749,5.887-7.356,9.238-9.414l8.883-5.453c2.901-1.781,4.667-5.003,4.608-8.408
							l-0.161-9.253c-0.034-1.989,1.536-3.674,3.501-3.757c0.726-0.03,1.452,0.004,2.089,0.034l0.585,0.026
							c1.785,0.063,3.461-0.855,4.363-2.403S46.909,130.727,45.965,129.194z M41.319,131.571c-0.707-0.034-1.585-0.075-2.535-0.035
							c-4.653,0.195-8.372,4.161-8.291,8.839l0.161,9.253c0.028,1.644-0.824,3.2-2.226,4.06l-8.883,5.453
							c-4.028,2.473-8.088,6.594-10.86,11.022c-0.04,0.063-0.159,0.254-0.559,0.268c-0.373,0.009-0.932-0.157-1.313-0.679
							c-1.294-1.776-3.782-6.803,1.055-15.104l19.713-33.836c0.278-0.477,0.698-0.794,1.184-0.893
							c0.094-0.02,0.203-0.033,0.323-0.033c0.278,0,0.616,0.071,0.977,0.306l11.308,11.379L41.319,131.571z"/>
					</g>
				</g>
			</g>
		</g>
		<g>
			<g>
				<path d="M165.601,166.235l-4.336-3.067c-1.126-0.796-2.688-0.53-3.485,0.597s-0.53,2.688,0.597,3.485l3.06,2.165l-8.174,49.858
					c-0.223,1.362,0.7,2.648,2.063,2.872c0.137,0.022,0.273,0.033,0.407,0.033c1.203,0,2.263-0.871,2.464-2.096l8.427-51.401
					C166.778,167.737,166.381,166.788,165.601,166.235z"/>
			</g>
		</g>
		<g>
			<g>
				<path d="M187.451,149.551l-7.56-5.347c-1.127-0.796-2.687-0.53-3.485,0.597c-0.797,1.127-0.53,2.688,0.597,3.485l7.56,5.347
					c3.624,2.563,5.228,7.006,4.088,11.321l-15.594,59.025c-0.353,1.335,0.443,2.703,1.778,3.056
					c0.214,0.057,0.429,0.083,0.64,0.083c1.107,0,2.12-0.741,2.416-1.862l15.594-59.025
					C195.165,159.878,192.795,153.331,187.451,149.551z"/>
			</g>
		</g>
		<g>
			<g>
				<path d="M110.65,168.763c-0.908-1.041-2.488-1.147-3.527-0.239l-6.707,5.854c-3,2.619-7.302,3.333-10.987,1.834L34.924,147.69
					c-1.222-0.64-2.733-0.167-3.374,1.056c-0.64,1.224-0.167,2.734,1.056,3.374l54.606,28.575c0.063,0.033,0.128,0.064,0.194,0.091
					c1.921,0.804,3.96,1.195,5.989,1.195c3.729,0,7.427-1.321,10.309-3.837l6.707-5.854
					C111.451,171.383,111.559,169.804,110.65,168.763z"/>
			</g>
		</g>
		<g>
			<g>
				<path d="M94.285,148.22c-0.908-1.041-2.488-1.147-3.527-0.239l-0.268,0.233l-44.774-18.731
					c-1.275-0.533-2.739,0.067-3.271,1.341c-0.533,1.274,0.067,2.738,1.341,3.271l46.21,19.332c0.311,0.13,0.639,0.194,0.964,0.194
					c0.594,0,1.181-0.212,1.645-0.617l1.44-1.257C95.085,150.84,95.193,149.26,94.285,148.22z"/>
			</g>
		</g>
		<g>
			<g>
				<path d="M252.805,112.129c-2.388-2.915-5.767-4.725-9.517-5.098l-41.04-4.08c-0.644-1.211-2.146-1.679-3.364-1.042
					c-1.224,0.639-1.698,2.149-1.06,3.373l0.616,1.18c0.39,0.747,1.13,1.248,1.969,1.331l42.384,4.213
					c2.42,0.24,4.602,1.409,6.143,3.291c1.541,1.881,2.257,4.25,2.017,6.671c-0.495,4.98-4.906,8.66-9.961,8.16l-48.622-4.833
					c-3.064-0.304-5.745-2.115-7.17-4.846l-1.654-3.167c-0.639-1.225-2.15-1.699-3.373-1.059c-1.224,0.639-1.698,2.149-1.059,3.373
					l1.653,3.167c2.208,4.229,6.361,7.036,11.109,7.507l48.623,4.833c0.472,0.047,0.945,0.07,1.408,0.07
					c7.274,0,13.302-5.465,14.022-12.711C256.302,118.714,255.193,115.044,252.805,112.129z"/>
			</g>
		</g>
		<g>
			<g>
				<path d="M141.155,45.3l-6.34-2.629c-4.472-1.854-9.52-1.317-13.503,1.432l-40.523,27.98c-6.441,4.447-8.063,13.306-3.616,19.749
					c2.651,3.839,7.022,6.131,11.693,6.131c2.887,0,5.672-0.87,8.056-2.515l34.161-23.587l0.542,0.225
					c1.278,0.529,2.739-0.077,3.267-1.352c0.529-1.275-0.077-2.738-1.352-3.267l-1.8-0.746c-0.784-0.324-1.68-0.23-2.378,0.252
					L94.081,91.333c-1.544,1.066-3.347,1.629-5.215,1.629c-3.028,0-5.861-1.485-7.579-3.972c-2.881-4.173-1.83-9.913,2.342-12.793
					l40.523-27.98c2.58-1.782,5.851-2.128,8.748-0.928l6.339,2.629c1.273,0.528,2.737-0.076,3.267-1.352
					C143.036,47.291,142.431,45.829,141.155,45.3z"/>
			</g>
		</g>
		<g>
			<g>
				<path d="M176.589,56.157c-1.207-0.671-2.729-0.236-3.399,0.971l-1.247,2.243c-4.001,7.203-10.405,12.888-18.032,16.008
					l-6.103,2.497c-1.278,0.523-1.89,1.982-1.367,3.261c0.396,0.968,1.33,1.554,2.315,1.554c0.315,0,0.636-0.06,0.946-0.187
					l6.103-2.497c8.675-3.549,15.958-10.016,20.509-18.208l1.246-2.242C178.23,58.35,177.796,56.828,176.589,56.157z"/>
			</g>
		</g>
		<g>
			<g>
				<path d="M176.655,148.228c-0.55-1.266-2.023-1.848-3.289-1.297c-15.408,6.694-32.287,4.17-37.092,3.237
					c-1.354-0.261-2.667,0.622-2.931,1.978c-0.263,1.355,0.623,2.667,1.978,2.931c2.443,0.474,7.792,1.33,14.523,1.33
					c7.495,0,16.702-1.061,25.515-4.889C176.625,150.966,177.205,149.494,176.655,148.228z"/>
			</g>
		</g>
		<g>
			<g>
				<path d="M107.722,130.099c-1.317-0.403-2.717,0.341-3.12,1.662c-1.524,4.998-4.821,18.16-2.519,32.384
					c0.199,1.228,1.26,2.101,2.465,2.101c0.133,0,0.267-0.011,0.402-0.033c1.363-0.221,2.289-1.504,2.068-2.867
					c-2.135-13.19,0.943-25.463,2.365-30.127C109.787,131.899,109.043,130.501,107.722,130.099z"/>
			</g>
		</g>
		<g>
			<g>
				<path d="M52.291,132.957c-1.243-0.603-2.738-0.083-3.34,1.159l-8.959,18.479c-0.603,1.243-0.083,2.738,1.159,3.34
					c0.352,0.17,0.723,0.251,1.089,0.251c0.928,0,1.819-0.519,2.251-1.41l8.959-18.479
					C54.052,135.054,53.533,133.559,52.291,132.957z"/>
			</g>
		</g>
		<g>
			<g>
				<path d="M177.406,213.36l-19.031-3.918c-1.356-0.279-2.674,0.592-2.953,1.944c-0.278,1.353,0.592,2.675,1.944,2.953
					l19.031,3.918c0.17,0.035,0.34,0.052,0.507,0.052c1.162,0,2.203-0.814,2.446-1.996
					C179.629,214.96,178.758,213.638,177.406,213.36z"/>
			</g>
		</g>
	</g>
</g>
<g id="Layer_2">
</g>
<g id="Layer_3">
</g>
<g id="Layer_4">
</g>
<g id="Layer_5">
</g>
<g id="Layer_6">
</g>
<g id="Layer_7">
</g>
<g id="Layer_8">
</g>
<g id="Layer_9">
</g>
<g id="Layer_10">
</g>
<g id="Layer_11">
</g>
<g id="Layer_12">
</g>
<g id="Layer_13">
</g>
<g id="Layer_14">
</g>
<g id="Layer_15">
</g>
<g id="Layer_16">
</g>
<g id="Layer_17">
</g>
<g id="Layer_18">
</g>
<g id="Layer_19">
</g>
<g id="Layer_20">
</g>
<g id="Layer_21">
</g>
<g id="Layer_22">
</g>
<g id="Layer_23">
</g>
<g id="Layer_24">
</g>
<g id="Layer_25">
</g>
<g id="Layer_26">
</g>
<g id="Layer_27">
</g>
<g id="Layer_28">
</g>
<g id="Layer_29">
</g>
<g id="Layer_30">
</g>
<g id="Layer_31">
</g>
<g id="Layer_32">
</g>
<g id="Layer_33">
</g>
<g id="Layer_34">
</g>
<g id="Layer_35">
</g>
<g id="Layer_36">
</g>
<g id="Layer_37">
</g>
<g id="Layer_38">
</g>
<g id="Layer_39">
</g>
<g id="Layer_40">
</g>
<g id="Layer_41">
</g>
<g id="Layer_42">
</g>
<g id="Layer_43">
</g>
<g id="Layer_44">
</g>
<g id="Layer_45">
</g>
<g id="Layer_46">
</g>
<g id="Layer_47">
</g>
<g id="Layer_48">
</g>
<g id="Layer_49">
</g>
<g id="Layer_50">
</g>
<g id="Layer_51">
</g>
<g id="Layer_52">
</g>
<g id="Layer_53">
</g>
<g id="Layer_54">
</g>
<g id="Layer_55">
</g>
<g id="Layer_56">
</g>
<g id="Layer_57">
</g>
<g id="Layer_58">
</g>
<g id="Layer_59">
</g>
<g id="Layer_60">
</g>
<g id="Layer_61">
</g>
<g id="Layer_62">
</g>
<g id="Layer_63">
</g>
<g id="Layer_64">
</g>
<g id="Layer_65">
</g>
<g id="Layer_66">
</g>
<g id="Layer_67">
</g>
<g id="Layer_68">
</g>
<g id="Layer_69">
</g>
<g id="Layer_70">
</g>
<g id="Layer_71">
</g>
<g id="Layer_72">
</g>
<g id="Layer_73">
</g>
<g id="Layer_74">
</g>
<g id="Layer_75">
</g>
</svg>
